<svg width="17" height="19" viewBox="0 0 17 19" fill="none" xmlns="http://www.w3.org/2000/svg">
<path fill-rule="evenodd" clip-rule="evenodd" d="M6.18355 9.18355C6.24158 9.12537 6.31053 9.0792 6.38643 9.04771C6.46233 9.01621 6.5437 9 6.62588 9C6.70806 9 6.78943 9.01621 6.86533 9.04771C6.94123 9.0792 7.01017 9.12537 7.06821 9.18355L8.50016 10.6168L9.93212 9.18355C10.0494 9.06623 10.2085 9.00033 10.3744 9.00033C10.5404 9.00033 10.6995 9.06623 10.8168 9.18355C10.9341 9.30086 11 9.45997 11 9.62588C11 9.79178 10.9341 9.9509 10.8168 10.0682L9.38358 11.5002L10.8168 12.9321C10.9341 13.0494 11 13.2085 11 13.3744C11 13.5404 10.9341 13.6995 10.8168 13.8168C10.6995 13.9341 10.5404 14 10.3744 14C10.2085 14 10.0494 13.9341 9.93212 13.8168L8.50016 12.3836L7.06821 13.8168C6.9509 13.9341 6.79178 14 6.62588 14C6.45997 14 6.30086 13.9341 6.18355 13.8168C6.06623 13.6995 6.00033 13.5404 6.00033 13.3744C6.00033 13.2085 6.06623 13.0494 6.18355 12.9321L7.61675 11.5002L6.18355 10.0682C6.12537 10.0102 6.0792 9.94123 6.04771 9.86533C6.01621 9.78943 6 9.70806 6 9.62588C6 9.5437 6.01621 9.46233 6.04771 9.38643C6.0792 9.31053 6.12537 9.24158 6.18355 9.18355Z" fill="#9F9F9F"/>
<path d="M8.5 1.1875C9.30512 1.1875 10.0773 1.50028 10.6466 2.05703C11.2159 2.61378 11.5357 3.36889 11.5357 4.15625V4.75H5.46429V4.15625C5.46429 3.36889 5.78412 2.61378 6.35343 2.05703C6.92273 1.50028 7.69488 1.1875 8.5 1.1875ZM12.75 4.75V4.15625C12.75 3.05394 12.3022 1.99679 11.5052 1.21734C10.7082 0.437889 9.62717 0 8.5 0C7.37283 0 6.29183 0.437889 5.4948 1.21734C4.69777 1.99679 4.25 3.05394 4.25 4.15625V4.75H0V16.625C0 17.2549 0.255867 17.859 0.711312 18.3044C1.16676 18.7498 1.78447 19 2.42857 19H14.5714C15.2155 19 15.8332 18.7498 16.2887 18.3044C16.7441 17.859 17 17.2549 17 16.625V4.75H12.75ZM1.21429 5.9375H15.7857V16.625C15.7857 16.9399 15.6578 17.242 15.4301 17.4647C15.2023 17.6874 14.8935 17.8125 14.5714 17.8125H2.42857C2.10652 17.8125 1.79766 17.6874 1.56994 17.4647C1.34222 17.242 1.21429 16.9399 1.21429 16.625V5.9375Z" fill="#9F9F9F"/>
</svg>
