<svg width="38" height="39" viewBox="0 0 38 39" fill="none" xmlns="http://www.w3.org/2000/svg">
<g clip-path="url(#clip0_32_27386)">
<path d="M34.9732 15.6765C34.7232 7.26557 27.7963 0.5 19.3165 0.5C10.8368 0.5 3.90988 7.26557 3.65978 15.6765L2.5332 16.8018V24.4335L3.65209 25.5512V30.751C3.65209 33.7913 6.12827 36.2647 9.17194 36.2647H10.5579C11.0198 37.5656 12.2634 38.5 13.7221 38.5H15.9599C17.4195 38.5 18.6639 37.5642 19.125 36.262C19.1889 36.2631 19.253 36.2647 19.3165 36.2647C24.7199 36.2647 29.2409 32.4188 30.2805 27.3235H33.2066L36.0999 24.4335V16.8018L34.9732 15.6765ZM19.3165 2.73529C25.9576 2.73529 31.4871 7.57687 32.5557 13.9118H30.2805C29.2409 8.81649 24.7199 4.97059 19.3165 4.97059C13.9132 4.97059 9.39214 8.81649 8.35262 13.9118H6.0774C7.14593 7.57687 12.6755 2.73529 19.3165 2.73529ZM27.9844 13.9118C24.3675 13.901 21.8127 14.121 19.7064 11.0454L18.6835 9.55197L17.8045 11.1341C16.5238 13.4394 14.799 13.9118 12.6032 13.9118H10.6487C11.6448 10.0598 15.1533 7.20588 19.3165 7.20588C23.4798 7.20588 26.9882 10.0598 27.9844 13.9118ZM8.12765 25.0882H6.35331L4.77098 23.5077V17.7276L6.35331 16.1471H8.12765V25.0882ZM5.88987 30.751V27.3235H8.35046C8.77168 29.4079 9.7795 31.3213 11.2725 32.858C10.9596 33.1921 10.7141 33.5896 10.5579 34.0294H9.17194C7.36218 34.0294 5.88987 32.5587 5.88987 30.751ZM15.9599 36.2647H13.7221C13.1051 36.2647 12.6032 35.7634 12.6032 35.1471C12.6032 34.5308 13.1051 34.0294 13.7221 34.0294H15.9599C16.5768 34.0294 17.0788 34.5308 17.0788 35.1471C17.0788 35.7634 16.5768 36.2647 15.9599 36.2647ZM28.2676 25.0882C28.2676 30.0184 24.2522 34.0294 19.3165 34.0294C19.2524 34.0294 19.1877 34.0281 19.1231 34.0267C18.6605 32.7272 17.4175 31.7941 15.9599 31.7941C13.6624 31.7992 13.699 31.7826 13.4127 31.8089C11.4701 30.1082 10.3654 27.6857 10.3654 25.0882V16.1471H12.6032C14.5834 16.1471 16.995 15.8209 18.8617 13.5515C21.3248 16.1298 24.3348 16.1471 27.0367 16.1471H28.2676V25.0882ZM33.8621 23.5077L32.2798 25.0882H30.5054V16.1471H32.2798L33.8621 17.7276V23.5077Z" fill="#333333"/>
</g>
<defs>
<clipPath id="clip0_32_27386">
<rect width="38" height="38" fill="white" transform="translate(0 0.5)"/>
</clipPath>
</defs>
</svg>
