<svg width="18" height="18" viewBox="0 0 18 18" fill="none" xmlns="http://www.w3.org/2000/svg">
<path d="M2 8C1.45 8 0.979333 7.80433 0.588 7.413C0.196667 7.02167 0.000666667 6.55067 0 6V2C0 1.45 0.196 0.979333 0.588 0.588C0.98 0.196667 1.45067 0.000666667 2 0H6C6.55 0 7.021 0.196 7.413 0.588C7.805 0.98 8.00067 1.45067 8 2V6C8 6.55 7.80433 7.021 7.413 7.413C7.02167 7.805 6.55067 8.00067 6 8H2ZM2 18C1.45 18 0.979333 17.8043 0.588 17.413C0.196667 17.0217 0.000666667 16.5507 0 16V12C0 11.45 0.196 10.9793 0.588 10.588C0.98 10.1967 1.45067 10.0007 2 10H6C6.55 10 7.021 10.196 7.413 10.588C7.805 10.98 8.00067 11.4507 8 12V16C8 16.55 7.80433 17.021 7.413 17.413C7.02167 17.805 6.55067 18.0007 6 18H2ZM12 8C11.45 8 10.9793 7.80433 10.588 7.413C10.1967 7.02167 10.0007 6.55067 10 6V2C10 1.45 10.196 0.979333 10.588 0.588C10.98 0.196667 11.4507 0.000666667 12 0H16C16.55 0 17.021 0.196 17.413 0.588C17.805 0.98 18.0007 1.45067 18 2V6C18 6.55 17.8043 7.021 17.413 7.413C17.0217 7.805 16.5507 8.00067 16 8H12ZM12 18C11.45 18 10.9793 17.8043 10.588 17.413C10.1967 17.0217 10.0007 16.5507 10 16V12C10 11.45 10.196 10.9793 10.588 10.588C10.98 10.1967 11.4507 10.0007 12 10H16C16.55 10 17.021 10.196 17.413 10.588C17.805 10.98 18.0007 11.4507 18 12V16C18 16.55 17.8043 17.021 17.413 17.413C17.0217 17.805 16.5507 18.0007 16 18H12ZM2 6H6V2H2V6ZM12 6H16V2H12V6ZM12 16H16V12H12V16ZM2 16H6V12H2V16Z" fill="#666666"/>
</svg>
