<svg width="37" height="20" viewBox="0 0 37 20" fill="none" xmlns="http://www.w3.org/2000/svg">
<path d="M2 1H18C18.2652 1 18.5196 1.10536 18.7071 1.29289C18.8946 1.48043 19 1.73478 19 2V3.586C18.9999 3.85119 18.8946 4.10551 18.707 4.293L12.293 10.707C12.1055 10.8945 12.0001 11.1488 12 11.414V17.719C12 17.871 11.9653 18.021 11.8987 18.1576C11.832 18.2942 11.735 18.4138 11.6152 18.5073C11.4954 18.6008 11.3558 18.6658 11.2071 18.6973C11.0584 18.7288 10.9044 18.7259 10.757 18.689L8.757 18.189C8.54075 18.1348 8.34881 18.01 8.21166 17.8342C8.0745 17.6585 8.00001 17.4419 8 17.219V11.414C7.99994 11.1488 7.89455 10.8945 7.707 10.707L1.293 4.293C1.10545 4.10551 1.00006 3.85119 1 3.586V2C1 1.73478 1.10536 1.48043 1.29289 1.29289C1.48043 1.10536 1.73478 1 2 1Z" stroke="#666666" stroke-width="2" stroke-linecap="round" stroke-linejoin="round"/>
<path d="M32.5116 13.8085L29.1395 10.7234C29.093 10.6809 29.0583 10.6349 29.0353 10.5855C29.0124 10.5362 29.0006 10.4828 29 10.4255C29 10.3121 29.0428 10.2128 29.1284 10.1277C29.214 10.0426 29.3262 10 29.4651 10H36.5349C36.6744 10 36.787 10.0426 36.8726 10.1277C36.9581 10.2128 37.0006 10.3121 37 10.4255C37 10.4539 36.9535 10.5532 36.8605 10.7234L33.4884 13.8085C33.4108 13.8794 33.3333 13.9291 33.2558 13.9574C33.1783 13.9858 33.093 14 33 14C32.907 14 32.8217 13.9858 32.7442 13.9574C32.6667 13.9291 32.5891 13.8794 32.5116 13.8085Z" fill="#666666"/>
</svg>
