<svg width="38" height="39" viewBox="0 0 38 39" fill="none" xmlns="http://www.w3.org/2000/svg">
<path d="M35.9645 13.9773C35.4631 12.428 35.6768 10.1023 34.3735 8.30661C33.06 6.49676 30.7755 5.98234 29.4855 5.04091C28.2091 4.10939 27.0216 2.08232 24.8745 1.3832C22.788 0.703783 20.6543 1.62574 19 1.62574C17.3459 1.62574 15.2124 0.703561 13.1255 1.38313C10.9788 2.0821 9.79034 4.10961 8.51475 5.04068C7.22616 5.98101 4.93993 6.49683 3.62662 8.30639C2.32446 10.1006 2.53605 12.4316 2.03552 13.9772C1.55919 15.4483 0 17.2138 0 19.5001C0 21.7879 1.55741 23.5466 2.03552 25.0229C2.53695 26.5723 2.3232 28.8979 3.62648 30.6936C4.93993 32.5036 7.22438 33.0179 8.51452 33.9594C9.79072 34.8908 10.9784 36.918 13.1255 37.6171C15.2106 38.296 17.3476 37.3745 19 37.3745C20.6501 37.3745 22.7921 38.2951 24.8745 37.6171C27.0213 36.9182 28.209 34.8911 29.4853 33.9596C30.7738 33.0192 33.0601 32.5034 34.3734 30.6939C35.6756 28.8996 35.4639 26.5688 35.9645 25.023C36.4408 23.5519 38 21.7864 38 19.5001C38 17.2125 36.443 15.4544 35.9645 13.9773ZM33.1396 24.1121C32.5552 25.9173 32.7083 27.9375 31.9691 28.9561C31.2199 29.9883 29.2517 30.4598 27.733 31.5683C26.2308 32.6644 25.178 34.4021 23.9536 34.8007C22.7952 35.178 20.9073 34.412 19.0001 34.412C17.0788 34.412 15.2105 35.1796 14.0465 34.8007C12.8222 34.4021 11.7709 32.6656 10.2671 31.5682C8.75737 30.4664 6.77795 29.9853 6.03094 28.956C5.2941 27.9408 5.44142 25.9065 4.86051 24.1122C4.29111 22.3541 2.96875 20.8318 2.96875 19.5001C2.96875 18.1671 4.28992 16.6501 4.86036 14.8882C5.44484 13.0831 5.29172 11.0626 6.03094 10.0441C6.77966 9.01262 8.74935 8.5396 10.2671 7.43198C11.774 6.33227 12.8202 4.59877 14.0463 4.19952C15.2038 3.82271 17.0978 4.58826 18.9999 4.58826C20.9246 4.58826 22.7883 3.82012 23.9535 4.19952C25.1777 4.59811 26.2299 6.33524 27.733 7.43205C29.2425 8.53383 31.222 9.01499 31.9691 10.0442C32.7061 11.0596 32.5579 13.0918 33.1395 14.888V14.8881C33.7089 16.6462 35.0312 18.1685 35.0312 19.5001C35.0312 20.8331 33.7101 22.3501 33.1396 24.1121ZM25.8387 14.7459C26.4185 15.3244 26.4185 16.2622 25.8387 16.8406L18.409 24.2543C17.8293 24.8328 16.8894 24.8328 16.3097 24.2543L12.1613 20.1149C11.5816 19.5364 11.5815 18.5986 12.1613 18.0202C12.741 17.4418 13.681 17.4417 14.2605 18.0202L17.3593 21.1123L23.7394 14.746C24.3191 14.1675 25.259 14.1675 25.8387 14.7459Z" fill="#333333"/>
</svg>
