<svg width="22" height="22" viewBox="0 0 22 22" fill="none" xmlns="http://www.w3.org/2000/svg">
<path d="M16 5.28571H17.4286M6.71429 1H15.2857C16.8012 1 18.2547 1.60204 19.3263 2.67368C20.398 3.74531 21 5.19876 21 6.71429V15.2857C21 16.8012 20.398 18.2547 19.3263 19.3263C18.2547 20.398 16.8012 21 15.2857 21H6.71429C5.19876 21 3.74531 20.398 2.67368 19.3263C1.60204 18.2547 1 16.8012 1 15.2857V6.71429C1 5.19876 1.60204 3.74531 2.67368 2.67368C3.74531 1.60204 5.19876 1 6.71429 1ZM11 15.2857C9.86336 15.2857 8.77327 14.8342 7.96954 14.0305C7.16582 13.2267 6.71429 12.1366 6.71429 11C6.71429 9.86336 7.16582 8.77327 7.96954 7.96954C8.77327 7.16582 9.86336 6.71429 11 6.71429C12.1366 6.71429 13.2267 7.16582 14.0305 7.96954C14.8342 8.77327 15.2857 9.86336 15.2857 11C15.2857 12.1366 14.8342 13.2267 14.0305 14.0305C13.2267 14.8342 12.1366 15.2857 11 15.2857Z" stroke="#999999" stroke-width="2"/>
</svg>
