<svg width="20" height="15" viewBox="0 0 20 15" fill="none" xmlns="http://www.w3.org/2000/svg">
<path d="M3.1 11.8385L6.65 8.28846C6.85 8.08846 7.08333 7.99246 7.35 8.00046C7.61667 8.00846 7.85 8.11279 8.05 8.31346C8.23333 8.51346 8.325 8.7468 8.325 9.01346C8.325 9.28013 8.23333 9.51346 8.05 9.71346L3.825 13.9635C3.625 14.1635 3.39167 14.2635 3.125 14.2635C2.85833 14.2635 2.625 14.1635 2.425 13.9635L0.275 11.8135C0.0916668 11.6301 0 11.3968 0 11.1135C0 10.8301 0.0916668 10.5968 0.275 10.4135C0.458333 10.2301 0.691667 10.1385 0.975 10.1385C1.25833 10.1385 1.49167 10.2301 1.675 10.4135L3.1 11.8385ZM3.1 3.83846L6.65 0.288462C6.85 0.0884617 7.08333 -0.00753846 7.35 0.000461538C7.61667 0.00846154 7.85 0.112795 8.05 0.313462C8.23333 0.513462 8.325 0.746795 8.325 1.01346C8.325 1.28013 8.23333 1.51346 8.05 1.71346L3.825 5.96346C3.625 6.16346 3.39167 6.26346 3.125 6.26346C2.85833 6.26346 2.625 6.16346 2.425 5.96346L0.275 3.81346C0.0916668 3.63013 0 3.39679 0 3.11346C0 2.83013 0.0916668 2.5968 0.275 2.41346C0.458333 2.23013 0.691667 2.13846 0.975 2.13846C1.25833 2.13846 1.49167 2.23013 1.675 2.41346L3.1 3.83846ZM11.575 12.6635C11.2917 12.6635 11.0543 12.5675 10.863 12.3755C10.6717 12.1835 10.5757 11.9461 10.575 11.6635C10.575 11.3801 10.671 11.1428 10.863 10.9515C11.055 10.7601 11.2923 10.6641 11.575 10.6635H18.575C18.8583 10.6635 19.096 10.7595 19.288 10.9515C19.48 11.1435 19.5757 11.3808 19.575 11.6635C19.575 11.9468 19.479 12.1845 19.287 12.3765C19.095 12.5685 18.8577 12.6641 18.575 12.6635H11.575ZM11.575 4.66346C11.2917 4.66346 11.0543 4.56746 10.863 4.37546C10.6717 4.18346 10.5757 3.94613 10.575 3.66346C10.575 3.38013 10.671 3.1428 10.863 2.95146C11.055 2.76013 11.2923 2.66413 11.575 2.66346H18.575C18.8583 2.66346 19.096 2.75946 19.288 2.95146C19.48 3.14346 19.5757 3.3808 19.575 3.66346C19.575 3.94679 19.479 4.18446 19.287 4.37646C19.095 4.56846 18.8577 4.66413 18.575 4.66346H11.575Z" fill="#666666"/>
</svg>
