<svg width="35" height="39" viewBox="0 0 35 39" fill="none" xmlns="http://www.w3.org/2000/svg">
<path d="M29.6274 2.72656C28.8131 2.72656 28.0496 2.94543 27.3912 3.32566V1.61328C27.3912 0.998453 26.8906 0.5 26.2731 0.5H8.38358C7.76602 0.5 7.26541 0.998453 7.26541 1.61328V3.33924C6.60178 2.95055 5.82963 2.72656 5.00559 2.72656C2.53952 2.72656 0.533203 4.72423 0.533203 7.17969C0.533203 9.0526 1.09061 10.8623 2.14513 12.4131C3.94034 15.0533 6.1541 15.7384 7.98591 16.468C9.04214 19.087 11.1781 21.1626 13.8425 22.1454L13.018 27.3672H12.856C11.0064 27.3672 9.50168 28.8654 9.50168 30.707V36.2734H8.38358C7.76609 36.2734 7.26548 36.7719 7.26548 37.3867C7.26548 38.0015 7.76609 38.5 8.38358 38.5H26.2731C26.8906 38.5 27.3912 38.0015 27.3912 37.3867C27.3912 36.7719 26.8906 36.2734 26.2731 36.2734H25.155V30.707C25.155 28.8654 23.6503 27.3672 21.8007 27.3672H21.6387L20.8143 22.1455C23.4826 21.1612 25.6209 19.0811 26.6756 16.4567C28.406 15.7675 30.6743 15.0804 32.4879 12.4131C33.5425 10.8623 34.0999 9.05252 34.0999 7.17969C34.0998 4.72423 32.0935 2.72656 29.6274 2.72656ZM7.25714 13.7797C4.53092 12.6939 2.7694 10.1033 2.7694 7.17969C2.7694 5.95196 3.77255 4.95312 5.00559 4.95312C6.23863 4.95312 7.24178 5.95196 7.24178 7.17969C7.24178 7.25799 7.25005 7.33428 7.26548 7.40798V12.7461C7.26548 13.1039 7.28479 13.4573 7.32176 13.8055L7.25714 13.7797ZM22.9188 36.2734H11.7379V34.0469H22.9188V36.2734ZM21.8007 29.5938C22.4173 29.5938 22.9188 30.0932 22.9188 30.707V31.8203H11.7379V30.707C11.7379 30.0932 12.2394 29.5938 12.856 29.5938C13.4626 29.5938 20.3781 29.5938 21.8007 29.5938ZM15.2816 27.3672L16.0215 22.6812C16.4494 22.7368 16.8855 22.7656 17.3284 22.7656C17.7712 22.7656 18.2073 22.7367 18.6352 22.6812L19.3751 27.3672H15.2816ZM25.155 12.7461C25.155 17.0431 21.644 20.5391 17.3284 20.5391C13.0127 20.5391 9.50168 17.0431 9.50168 12.7461V7.17969H25.155V12.7461ZM25.155 4.95312H9.50168V2.72656H25.155V4.95312ZM27.3758 13.7797L27.3361 13.7955C27.3723 13.4506 27.3911 13.1005 27.3911 12.7461V7.17969C27.3912 5.95196 28.3944 4.95312 29.6274 4.95312C30.8604 4.95312 31.8636 5.95196 31.8636 7.17969C31.8636 10.1033 30.1021 12.694 27.3758 13.7797Z" fill="#333333"/>
</svg>
