<svg width="12" height="13" viewBox="0 0 12 13" fill="none" xmlns="http://www.w3.org/2000/svg">
<path d="M10 9.1C9.47467 9.1 9 9.3015 8.644 9.62455L3.94 6.955C3.97333 6.8055 4 6.656 4 6.5C4 6.344 3.97333 6.1945 3.94 6.045L8.64 3.3735C9 3.6985 9.47333 3.9 10 3.9C11.1067 3.9 12 3.029 12 1.95C12 0.871 11.1067 0 10 0C8.89333 0 8 0.871 8 1.95C8 2.106 8.02667 2.2555 8.06 2.405L3.36 5.0765C3 4.7515 2.52667 4.55 2 4.55C0.893333 4.55 0 5.421 0 6.5C0 7.579 0.893333 8.45 2 8.45C2.52667 8.45 3 8.2485 3.36 7.9235L8.05867 10.6002C8.02112 10.7474 8.00143 10.8983 8 11.05C8 11.4357 8.1173 11.8127 8.33706 12.1334C8.55682 12.454 8.86918 12.704 9.23463 12.8516C9.60008 12.9992 10.0022 13.0378 10.3902 12.9625C10.7781 12.8873 11.1345 12.7016 11.4142 12.4289C11.6939 12.1561 11.8844 11.8087 11.9616 11.4304C12.0387 11.0522 11.9991 10.6601 11.8478 10.3038C11.6964 9.94745 11.44 9.6429 11.1111 9.42863C10.7822 9.21436 10.3956 9.1 10 9.1Z" fill="white"/>
</svg>
