<svg width="38" height="39" viewBox="0 0 38 39" fill="none" xmlns="http://www.w3.org/2000/svg">
<path d="M35.0537 20.1981V2.88501C35.0537 2.26735 34.5532 1.7666 33.9359 1.7666H3.9869C3.36957 1.7666 2.86908 2.26735 2.86908 2.88501V21.5783C2.32984 21.6569 1.80267 21.8664 1.33631 22.2128C-0.133854 23.2558 -0.481573 25.59 0.7499 27.0295L5.78482 33.1366C8.90147 36.7861 12.2122 37.2332 17.1341 37.2332C21.3578 37.2332 23.2461 37.2519 26.9271 36.4127L30.5114 35.5549C31.0926 36.367 32.0153 36.893 33.0526 36.893H34.8183C36.5727 36.893 38 35.3886 38 33.5394V23.5417C38.0001 21.776 36.6985 20.3256 35.0537 20.1981ZM30.0293 22.4988L28.5399 21.7419C26.091 20.5052 23.2597 20.4594 20.7722 21.6165C20.0935 21.8836 18.6133 22.7797 17.8455 22.7497H12.6773C10.963 22.7497 9.56821 24.1451 9.56821 25.8604V26.676C9.5586 26.6658 9.54854 26.6562 9.53908 26.6459L5.84838 22.6378C5.62504 22.3952 5.37413 22.1923 5.10481 22.0294V10.9334H14.2526V15.0332C14.2526 15.6508 14.7531 16.1516 15.3704 16.1516H22.424C23.0413 16.1516 23.5418 15.6508 23.5418 15.0332V10.9334H32.8181V20.1981C31.5121 20.299 30.423 21.2339 30.0293 22.4988ZM16.4882 10.9334H21.3061V13.9148H16.4882V10.9334ZM32.8181 8.69657H23.5418V4.00342H32.8181V8.69657H32.8181ZM21.3061 4.00342V8.69664H16.4882V4.00342H21.3061ZM14.2525 4.00342V8.69664H5.10473V4.00342H14.2525ZM26.4083 34.2369C23.0078 35.0161 20.9599 34.9846 17.1742 34.9846C12.5539 34.9846 10.3214 34.9099 7.50955 31.7131L2.47463 25.6061C1.59885 24.4651 3.18512 23.1182 4.20413 24.1532L7.89483 28.1614C8.87024 29.1912 10.0977 29.7579 11.6106 29.7913H21.843C22.4603 29.7913 22.9608 29.2905 22.9608 28.6729C22.9608 28.0552 22.4603 27.5544 21.843 27.5544H11.8038V25.8602C11.8038 25.3784 12.1956 24.9864 12.6772 24.9864H17.8454C19.0098 25.0698 20.6903 24.0971 21.7147 23.6447C23.5777 22.778 25.6983 22.8123 27.53 23.7373L29.871 24.927V33.4081L26.4083 34.2369ZM35.7644 33.5394C35.7644 34.1551 35.34 34.6561 34.8184 34.6561H33.0526C32.531 34.6561 32.1067 34.1551 32.1067 33.5394V23.5417C32.1067 22.9259 32.5311 22.4248 33.0526 22.4248H34.8184C35.34 22.4248 35.7644 22.9258 35.7644 23.5417V33.5394Z" fill="#333333"/>
</svg>
