<svg width="35" height="39" viewBox="0 0 35 39" fill="none" xmlns="http://www.w3.org/2000/svg">
<path d="M32.9732 15.6765C32.7232 7.26557 25.7963 0.5 17.3165 0.5C8.83678 0.5 1.90988 7.26557 1.65978 15.6765L0.533203 16.8018V24.4335L1.65209 25.5512V30.751C1.65209 33.7913 4.12827 36.2647 7.17194 36.2647H8.55787C9.01975 37.5656 10.2634 38.5 11.7221 38.5H13.9599C15.4195 38.5 16.6639 37.5642 17.125 36.262C17.1889 36.2631 17.253 36.2647 17.3165 36.2647C22.7199 36.2647 27.2409 32.4188 28.2805 27.3235H31.2066L34.0999 24.4335V16.8018L32.9732 15.6765ZM17.3165 2.73529C23.9576 2.73529 29.4871 7.57687 30.5557 13.9118H28.2805C27.2409 8.81649 22.7199 4.97059 17.3165 4.97059C11.9132 4.97059 7.39214 8.81649 6.35262 13.9118H4.0774C5.14593 7.57687 10.6755 2.73529 17.3165 2.73529ZM25.9844 13.9118C22.3675 13.901 19.8127 14.121 17.7064 11.0454L16.6835 9.55197L15.8045 11.1341C14.5238 13.4394 12.799 13.9118 10.6032 13.9118H8.64865C9.64484 10.0598 13.1533 7.20588 17.3165 7.20588C21.4798 7.20588 24.9882 10.0598 25.9844 13.9118ZM6.12765 25.0882H4.35331L2.77098 23.5077V17.7276L4.35331 16.1471H6.12765V25.0882ZM3.88987 30.751V27.3235H6.35046C6.77168 29.4079 7.7795 31.3213 9.27254 32.858C8.95955 33.1921 8.71407 33.5896 8.55787 34.0294H7.17194C5.36218 34.0294 3.88987 32.5587 3.88987 30.751ZM13.9599 36.2647H11.7221C11.1051 36.2647 10.6032 35.7634 10.6032 35.1471C10.6032 34.5308 11.1051 34.0294 11.7221 34.0294H13.9599C14.5768 34.0294 15.0788 34.5308 15.0788 35.1471C15.0788 35.7634 14.5768 36.2647 13.9599 36.2647ZM26.2676 25.0882C26.2676 30.0184 22.2522 34.0294 17.3165 34.0294C17.2524 34.0294 17.1877 34.0281 17.1231 34.0267C16.6605 32.7272 15.4175 31.7941 13.9599 31.7941C11.6624 31.7992 11.699 31.7826 11.4127 31.8089C9.47014 30.1082 8.36543 27.6857 8.36543 25.0882V16.1471H10.6032C12.5834 16.1471 14.995 15.8209 16.8617 13.5515C19.3248 16.1298 22.3348 16.1471 25.0367 16.1471H26.2676V25.0882ZM31.8621 23.5077L30.2798 25.0882H28.5054V16.1471H30.2798L31.8621 17.7276V23.5077Z" fill="#333333"/>
</svg>
