<svg width="22" height="19" viewBox="0 0 22 19" fill="none" xmlns="http://www.w3.org/2000/svg">
<path d="M21 1.00914C21 1.00914 19.1655 2.09278 18.1455 2.40005C17.5979 1.77051 16.8703 1.32432 16.0609 1.1218C15.2516 0.919287 14.3995 0.970228 13.6201 1.26774C12.8406 1.56524 12.1713 2.09496 11.7027 2.78525C11.2341 3.47553 10.9888 4.29308 11 5.12732V6.03641C9.40239 6.07784 7.81934 5.72352 6.39183 5.005C4.96431 4.28649 3.73665 3.22608 2.81818 1.91823C2.81818 1.91823 -0.818182 10.1001 7.36364 13.7364C5.49139 15.0073 3.26105 15.6445 1 15.5546C9.18182 20.1 19.1818 15.5546 19.1818 5.10005C19.1818 4.84732 19.1564 4.5946 19.1091 4.3455C20.0364 3.43096 21 1.00914 21 1.00914Z" stroke="#999999" stroke-width="2" stroke-linecap="round" stroke-linejoin="round"/>
</svg>
