<svg width="38" height="37" viewBox="0 0 38 37" fill="none" xmlns="http://www.w3.org/2000/svg">
<path d="M35.9645 12.9773C35.4631 11.428 35.6768 9.10233 34.3735 7.30661C33.06 5.49676 30.7755 4.98234 29.4855 4.04091C28.2091 3.10939 27.0216 1.08232 24.8745 0.383201C22.788 -0.296217 20.6543 0.625744 19 0.625744C17.3459 0.625744 15.2124 -0.296439 13.1255 0.383127C10.9788 1.0821 9.79034 3.10961 8.51475 4.04068C7.22616 4.98101 4.93993 5.49683 3.62662 7.30639C2.32446 9.10062 2.53605 11.4316 2.03552 12.9772C1.55919 14.4483 0 16.2138 0 18.5001C0 20.7879 1.55741 22.5466 2.03552 24.0229C2.53695 25.5723 2.3232 27.8979 3.62648 29.6936C4.93993 31.5036 7.22438 32.0179 8.51452 32.9594C9.79072 33.8908 10.9784 35.918 13.1255 36.6171C15.2106 37.296 17.3476 36.3745 19 36.3745C20.6501 36.3745 22.7921 37.2951 24.8745 36.6171C27.0213 35.9182 28.209 33.8911 29.4853 32.9596C30.7738 32.0192 33.0601 31.5034 34.3734 29.6939C35.6756 27.8996 35.4639 25.5688 35.9645 24.023C36.4408 22.5519 38 20.7864 38 18.5001C38 16.2125 36.443 14.4544 35.9645 12.9773ZM33.1396 23.1121C32.5552 24.9173 32.7083 26.9375 31.9691 27.9561C31.2199 28.9883 29.2517 29.4598 27.733 30.5683C26.2308 31.6644 25.178 33.4021 23.9536 33.8007C22.7952 34.178 20.9073 33.412 19.0001 33.412C17.0788 33.412 15.2105 34.1796 14.0465 33.8007C12.8222 33.4021 11.7709 31.6656 10.2671 30.5682C8.75737 29.4664 6.77795 28.9853 6.03094 27.956C5.2941 26.9408 5.44142 24.9065 4.86051 23.1122C4.29111 21.3541 2.96875 19.8318 2.96875 18.5001C2.96875 17.1671 4.28992 15.6501 4.86036 13.8882C5.44484 12.0831 5.29172 10.0626 6.03094 9.04412C6.77966 8.01262 8.74935 7.5396 10.2671 6.43198C11.774 5.33227 12.8202 3.59877 14.0463 3.19952C15.2038 2.82271 17.0978 3.58826 18.9999 3.58826C20.9246 3.58826 22.7883 2.82012 23.9535 3.19952C25.1777 3.59811 26.2299 5.33524 27.733 6.43205C29.2425 7.53383 31.222 8.01499 31.9691 9.04419C32.7061 10.0596 32.5579 12.0918 33.1395 13.888V13.8881C33.7089 15.6462 35.0312 17.1685 35.0312 18.5001C35.0312 19.8331 33.7101 21.3501 33.1396 23.1121ZM25.8387 13.7459C26.4185 14.3244 26.4185 15.2622 25.8387 15.8406L18.409 23.2543C17.8293 23.8328 16.8894 23.8328 16.3097 23.2543L12.1613 19.1149C11.5816 18.5364 11.5815 17.5986 12.1613 17.0202C12.741 16.4418 13.681 16.4417 14.2605 17.0202L17.3593 20.1123L23.7394 13.746C24.3191 13.1675 25.259 13.1675 25.8387 13.7459Z" fill="#333333"/>
</svg>
